<svg width="461" height="53" viewBox="0 0 461 53" fill="none" xmlns="http://www.w3.org/2000/svg">
<g clip-path="url(#clip0_141_611)">
<path d="M254.13 18.3919C245.646 11.7478 236.447 10.3602 226.709 11.8419C220.604 12.7709 215.729 15.8871 212.964 21.6493C210.831 26.1061 211.769 30.3396 214.476 34.2319C218.038 39.3591 223.194 41.758 229.217 42.2754C234.385 42.7105 239.459 42.0285 244.415 40.3822C246.091 39.8295 246.935 39.0533 246.677 37.1836C246.513 35.9959 246.642 34.7729 246.642 33.3382H231.162V22.6959H257.481V25.1183C257.481 30.857 257.317 36.5956 257.551 42.3225C257.657 44.8625 256.684 46.2266 254.657 47.4378C249.77 50.3542 244.474 51.8947 238.873 52.5179C231.936 53.3058 225.045 53.2235 218.331 50.9187C206.941 47.0027 199.992 37.5128 200.355 25.9415C200.625 17.2277 205.136 10.8188 211.991 5.9151C219.831 0.305828 228.725 -0.646691 237.982 0.352865C242.974 0.893802 247.837 1.9404 252.407 4.16294C253.661 4.77443 254.176 5.52704 254.141 6.97346C254.036 10.6071 254.106 14.2408 254.106 18.3919H254.13Z" fill="#F3BD20"/>
<path d="M177.833 33.2913C181.384 39.3239 184.899 45.2859 188.626 51.6126C184.243 51.6126 180.2 51.6714 176.169 51.542C175.63 51.5302 174.974 50.66 174.599 50.0368C171.927 45.5447 169.361 40.9937 166.654 36.5134C166.256 35.8548 165.342 35.0905 164.651 35.0787C158.37 34.9729 152.089 35.0082 145.562 35.0082V51.4714H134.84V0.952687C135.437 0.89389 135.988 0.799814 136.551 0.799814C147.413 0.799814 158.276 0.741016 169.139 0.799814C177.318 0.846852 184.466 6.15038 186.399 13.4295C188.391 20.9438 185.544 28.2347 178.993 32.4564C178.642 32.6798 178.326 32.9385 177.857 33.2795L177.833 33.2913ZM145.527 24.1306C153.472 24.1306 161.17 24.1777 168.869 24.0836C170.099 24.0718 171.388 23.5309 172.525 22.9782C174.646 21.9434 175.619 20.1324 175.584 17.7452C175.537 15.3463 174.447 13.5706 172.291 12.6651C170.931 12.0889 169.42 11.6303 167.967 11.6068C160.608 11.4892 153.261 11.5245 145.902 11.5245C145.796 11.5245 145.691 11.7009 145.538 11.8185V24.1424L145.527 24.1306Z" fill="#F3BD20"/>
<path d="M0 0.282281C3.87868 0.282281 7.58158 0.247002 11.2845 0.282281C18.4208 0.352838 25.5922 0.0470912 32.6934 0.658584C42.5717 1.50527 49.9775 6.60889 53.7038 15.9812C57.313 25.0478 56.2232 33.7615 49.872 41.3934C45.0559 47.1791 38.6696 50.4365 31.2286 50.6834C20.8933 51.0245 10.5345 50.7658 0 50.7658L0 0.282281ZM10.9329 10.9834V40.6526C17.0263 40.6526 22.944 40.6879 28.8616 40.6291C30.0568 40.6291 31.2872 40.3821 32.4473 40.0764C39.525 38.2772 44.306 32.127 44.0599 25.2242C43.8021 18.0391 38.8336 11.7478 31.7559 11.1128C24.9126 10.4895 17.9638 10.9834 10.9329 10.9834Z" fill="#F3BD20"/>
<path d="M405.375 0.529215C416.238 0.529215 426.901 0.105874 437.518 0.635051C451.029 1.30534 460.743 11.9006 461.001 25.2947C461.235 37.9949 451.404 49.0018 438.373 50.5423C436.041 50.8128 433.674 50.8716 431.319 50.8833C422.741 50.9186 414.175 50.8951 405.375 50.8951V0.529215ZM416.285 10.9716V40.6291C422.519 40.6291 428.577 40.6643 434.635 40.5938C435.901 40.582 437.19 40.2645 438.408 39.9117C445.17 37.9479 449.681 31.9741 449.517 25.3182C449.341 18.4507 444.818 12.9355 437.893 11.1833C437.611 11.1128 437.342 10.9952 437.061 10.9952C430.17 10.9952 423.268 10.9952 416.285 10.9952V10.9716Z" fill="#F3BD20"/>
<path d="M331.445 51.5066C327.297 51.5066 323.442 51.5654 319.598 51.4478C319.012 51.4243 318.274 50.7187 317.923 50.1308C316.528 47.8847 315.345 45.4975 313.88 43.2985C313.388 42.5694 312.274 41.8286 311.442 41.8168C302.162 41.711 292.869 41.7227 283.577 41.8168C282.792 41.8168 281.749 42.5106 281.304 43.1927C279.815 45.4622 278.597 47.9082 277.167 50.2248C276.804 50.8128 276.077 51.5301 275.503 51.5536C271.589 51.6712 267.676 51.6124 263.469 51.6124C263.809 50.9069 263.984 50.4835 264.207 50.0837C273.218 34.2084 282.241 18.3449 291.217 2.44604C291.908 1.22305 292.623 0.682118 294.053 0.752674C296.408 0.882029 298.764 0.834991 301.119 0.764434C302.314 0.729155 303.076 1.04666 303.697 2.16381C312.778 18.2508 321.895 34.3025 331.012 50.3777C331.141 50.6129 331.211 50.8834 331.457 51.5066H331.445ZM306.896 30.9393C303.685 25.3065 300.674 20.003 297.475 14.3819C294.276 20.0617 291.287 25.377 288.159 30.9393H306.884H306.896Z" fill="#F3BD20"/>
<path d="M127.246 51.5066C123.027 51.5066 119.243 51.5654 115.469 51.4478C114.86 51.436 114.063 50.8363 113.712 50.2719C112.259 47.9788 111.04 45.521 109.528 43.275C109.036 42.5459 107.923 41.8168 107.091 41.805C97.8805 41.6992 88.6584 41.6992 79.448 41.805C78.6043 41.805 77.4559 42.4988 76.9755 43.2162C75.4756 45.474 74.2452 47.92 72.839 50.2483C72.5109 50.801 71.8664 51.5184 71.3508 51.5301C67.3784 51.636 63.406 51.5889 59.0469 51.5889C60.5819 48.849 61.9178 46.4383 63.2771 44.0393C71.1165 30.2219 78.991 16.4163 86.7835 2.56362C87.5569 1.18777 88.424 0.646829 89.9825 0.740905C92.8183 0.917297 96.1814 5.71609e-05 98.361 1.2348C100.458 2.42251 101.361 5.76221 102.732 8.18466C110.583 22.0021 118.422 35.8312 126.262 49.6486C126.531 50.1307 126.777 50.6246 127.234 51.4831L127.246 51.5066ZM83.9009 30.8687H102.533C99.3687 25.2947 96.3689 20.0147 93.1816 14.3819C89.9825 20.0617 87.0296 25.3182 83.9126 30.8687H83.9009Z" fill="#F3BD20"/>
<path d="M376.981 0.270508H388.019C388.078 0.646811 388.148 0.917279 388.148 1.18775C388.042 11.6537 387.949 22.1196 387.785 32.5856C387.761 34.1496 387.492 35.7254 387.187 37.2659C385.371 46.5206 380.648 51.0009 371.25 52.365C365.274 53.2352 359.286 53.2 353.322 52.2945C344.053 50.8833 338.92 45.7444 337.678 36.1487C337.081 31.5507 336.987 26.8705 336.905 22.2137C336.788 14.9816 336.87 7.74954 336.87 0.329305H348.096C348.096 1.12895 348.096 1.95211 348.096 2.78704C348.131 11.6067 348.142 20.4263 348.213 29.2459C348.224 30.7393 348.447 32.2563 348.717 33.7262C349.654 38.677 351.74 41.123 356.661 41.6521C360.728 42.0872 364.923 41.8873 369.012 41.511C373.032 41.1347 375.41 38.4418 376.102 34.5141C376.594 31.7036 376.887 28.8225 376.922 25.9767C377.027 18.2272 376.957 10.4895 376.957 2.74V0.270508H376.981Z" fill="#F3BD20"/>
</g>
<defs>
<clipPath id="clip0_141_611">
<rect width="461" height="53" fill="white"/>
</clipPath>
</defs>
</svg>
